<svg xmlns="http://www.w3.org/2000/svg" width="66.117" height="6.764" viewBox="0 0 66.117 6.764">
  <g id="组_8028" data-name="组 8028" transform="translate(-51.87 -268.193)">
    <path id="路径_5" data-name="路径 5" d="M595.052,330.546a.339.339,0,0,0-.336-.338h-.072a14.217,14.217,0,0,1-7.195-1.969,15.609,15.609,0,0,0-8.239-2.116h-.376a15.607,15.607,0,0,0-8.238,2.116,14.216,14.216,0,0,1-7.194,1.969h-.072a.338.338,0,0,0,0,.676h.082a15.533,15.533,0,0,0,7.817-2.113,14.288,14.288,0,0,1,7.6-1.973h.376a14.289,14.289,0,0,1,7.605,1.973,15.532,15.532,0,0,0,7.818,2.113h.083A.339.339,0,0,0,595.052,330.546Z" transform="translate(-510.125 -56.927)" fill="#1892e5" stroke="#fff" stroke-width="2"/>
    <path id="路径_48716" data-name="路径 48716" d="M595.052,330.546a.339.339,0,0,0-.336-.338h-.072a14.217,14.217,0,0,1-7.195-1.969,15.609,15.609,0,0,0-8.239-2.116h-.376a15.607,15.607,0,0,0-8.238,2.116,14.216,14.216,0,0,1-7.194,1.969h-.072a.338.338,0,0,0,0,.676h.082a15.533,15.533,0,0,0,7.817-2.113,14.288,14.288,0,0,1,7.6-1.973h.376a14.289,14.289,0,0,1,7.605,1.973,15.532,15.532,0,0,0,7.818,2.113h.083A.339.339,0,0,0,595.052,330.546Z" transform="translate(-478.066 -56.927)" fill="#1892e5" stroke="#fff" stroke-width="2"/>
  </g>
</svg>
