<svg xmlns="http://www.w3.org/2000/svg" xmlns:xlink="http://www.w3.org/1999/xlink" width="55.475" height="72.373" viewBox="0 0 55.475 72.373">
  <defs>
    <linearGradient id="linear-gradient" x1="0.5" y1="0.739" x2="0.5" y2="1.189" gradientUnits="objectBoundingBox">
      <stop offset="0" stop-color="#0062c4"/>
      <stop offset="1" stop-color="#2f92f5"/>
    </linearGradient>
  </defs>
  <g id="returntop" transform="translate(-1850 -1671.813)">
    <g id="shuidi" transform="translate(1717.904 1666.759)">
      <path id="路径_46227" data-name="路径 46227" d="M187.387,49.948l-.074-.738a3.873,3.873,0,0,0-.074-.48c-.037-.443-.111-.885-.184-1.291a9.439,9.439,0,0,0-.184-1l-.111-.48c-1.66-7.783-6.344-16.856-13.979-27A151.751,151.751,0,0,0,161.788,6.018s-.3-.258-.59-.48a2.379,2.379,0,0,0-2.877,0,3.935,3.935,0,0,0-.664.59,143.636,143.636,0,0,0-10.918,12.836C139.1,29.108,134.383,38.182,132.76,45.891l-.111.516c-.074.332-.148.664-.184.959-.074.443-.148.885-.184,1.291V48.8c0,.111-.037.258-.037.369l-.074.811c-.037.59-.074,1.217-.074,1.844v.922a6.253,6.253,0,0,0,.037.848c.037.369.074.775.111,1.18l.074.59c.074.443.148.885.221,1.291l.111.48c.111.443.221.885.332,1.291.037.184.111.332.148.48.111.406.258.811.406,1.217.074.184.148.406.221.59.148.369.3.7.443,1.07.111.221.221.48.369.738l.184.406c.074.184.184.332.258.516.3.516.553,1,.885,1.475l.074.148c.443.664.922,1.328,1.475,2.029l.221.258c.516.627,1.033,1.217,1.66,1.844.59.59,1.217,1.143,1.844,1.7l.3.221c.516.406,1.033.811,1.7,1.254l.406.3c.553.369,1.143.7,1.844,1.107l.3.184c.184.111.406.184.627.3l.48.221a13.053,13.053,0,0,0,1.254.59c.406.184.811.332,1.217.48l.553.221c.221.074.443.184.664.258.59.184,1.18.332,1.734.479l.332.074a2.912,2.912,0,0,0,.48.111c.627.148,1.254.258,1.77.332l.258.037c.184.037.406.074.627.111.553.074,1.07.111,1.623.148l.3.037c.258.037.516.037.811.074H161.2a5.5,5.5,0,0,0,.775-.074l.3-.037c.553-.037,1.07-.111,1.623-.148.221-.037.406-.074.627-.111l.258-.037c.553-.111,1.143-.184,1.77-.332.184-.037.369-.111.553-.148l.258-.074c.553-.148,1.18-.3,1.734-.48a3.55,3.55,0,0,0,.664-.258l.553-.221c.406-.148.811-.3,1.217-.48a13.055,13.055,0,0,0,1.254-.59l.48-.221c.184-.074.369-.184.59-.3l.443-.258c.59-.332,1.143-.664,1.734-1.033.184-.111.369-.258.553-.369.553-.369,1.07-.775,1.586-1.18l.148-.111.184-.148a19.279,19.279,0,0,0,1.807-1.66l.111-.111c.516-.516,1.033-1.107,1.586-1.77l.184-.258c.553-.7,1.033-1.365,1.475-2.029l.074-.148c.332-.516.627-1,.885-1.475.111-.184.184-.369.3-.553l.184-.332a6.879,6.879,0,0,1,.369-.738c.148-.369.3-.7.443-1.07l.221-.59c.148-.406.3-.811.406-1.217l.148-.48c.111-.443.221-.848.332-1.328l.111-.443c.074-.443.184-.885.221-1.291a1.8,1.8,0,0,0,.037-.443l.037-.3c.037-.369.074-.7.111-1.07,0-.258.037-.553.037-.811v-1A11.375,11.375,0,0,1,187.387,49.948Zm-5.09,5.828-.074.369c-.074.332-.184.7-.258,1.033l-.111.369c-.111.332-.221.664-.332.959l-.184.48a8.439,8.439,0,0,1-.369.848c-.111.184-.184.369-.3.553l-.184.369a4.327,4.327,0,0,0-.184.406,13.233,13.233,0,0,1-.775,1.291,18.7,18.7,0,0,1-1.217,1.66l-.184.221c-.443.516-.848,1-1.365,1.512a16.534,16.534,0,0,1-1.475,1.328l-.3.221c-.406.332-.848.664-1.291.959l-.443.3-1.439.885-.332.184a2.924,2.924,0,0,1-.332.148c-.148.074-.258.111-.406.184l-.3.148c-.3.148-.59.3-.922.443s-.664.258-.959.369l-.664.258c-.148.037-.3.111-.443.148-.443.148-.885.258-1.475.406l-.369.111c-.111.037-.184.037-.3.074-.479.111-1,.184-1.512.3l-.3.037c-.148.037-.258.037-.406.074-.443.074-.922.111-1.365.148l-.332.037c-.184,0-.406.037-.59.037h-2.287c-.184,0-.406-.037-.59-.037l-.3-.037c-.443-.037-.922-.074-1.365-.148l-.738-.111c-.48-.074-1-.184-1.475-.3l-.332-.111-.369-.111c-.479-.111-.922-.258-1.4-.406-.148-.037-.258-.111-.48-.184l-.7-.258-.885-.332c-.3-.111-.59-.3-1-.48l-.664-.332a1.733,1.733,0,0,0-.184-.074l-.48-.258c-.48-.258-.959-.553-1.4-.848l-.443-.3a10.964,10.964,0,0,1-1.291-1l-.258-.184a18.849,18.849,0,0,1-1.586-1.475c-.443-.443-.848-.922-1.291-1.4l-.184-.221c-.479-.59-.848-1.107-1.143-1.549l-.148-.221a12.436,12.436,0,0,1-.7-1.18l-.221-.443-.148-.3c-.111-.184-.184-.369-.3-.553-.111-.3-.258-.553-.369-.848-.074-.148-.111-.3-.184-.48-.111-.332-.221-.664-.332-.959l-.111-.406a10.565,10.565,0,0,1-.258-1.033l-.074-.369a9.224,9.224,0,0,1-.184-1.07l-.074-.48c-.037-.3-.074-.627-.111-.922a4.008,4.008,0,0,0-.037-.664l-.037-.775c0-.516.037-1,.074-1.439l.148-1.217c.037-.332.074-.7.148-1.07.037-.258.111-.516.184-.885l.074-.369C140.4,32.354,155.481,15.24,159.686,10.7c4.2,4.537,19.291,21.651,22.352,36.11l.111.443a6.256,6.256,0,0,1,.148.811c.074.369.111.7.148,1.033l.148,1.18c.037.48.074.959.074,1.475l-.037.848a3.173,3.173,0,0,1-.037.59,5.523,5.523,0,0,1-.074.811l-.074.59a5.42,5.42,0,0,1-.148,1.18Z" transform="translate(0 0)" fill="url(#linear-gradient)"/>
      <path id="路径_46228" data-name="路径 46228" d="M224.009,95.773a3.859,3.859,0,0,0,.184-1.328V92.417a4.4,4.4,0,0,0-.922-2.693,6.2,6.2,0,0,0-1.143-5.275L204.313,61.692a6.146,6.146,0,0,0-10.143.664L176.538,92.38a6.175,6.175,0,0,0-.59,4.943,4.349,4.349,0,0,0-.332,1.7v9.406a4.4,4.4,0,0,0,3.947,4.389,5.5,5.5,0,0,0-.074.775v.111a4.462,4.462,0,0,0,3.615,4.352,3.709,3.709,0,0,0,3.652,3.32h1.918a3.227,3.227,0,0,0-.074.59,2.8,2.8,0,0,0,2.8,2.8h19.18a2.8,2.8,0,0,0,2.8-2.8,2.371,2.371,0,0,0-.258-1.143h2.287a4.48,4.48,0,0,0,4.426-4.057,4.463,4.463,0,0,0,1.217-3.025v-.111a5,5,0,0,0-.074-.738h.074a4.439,4.439,0,0,0,4.426-4.426V99.056A4.488,4.488,0,0,0,224.009,95.773Z" transform="translate(-40.385 -50.362)" fill="url(#linear-gradient)"/>
    </g>
    <text id="返回_顶部" data-name="返回
顶部" transform="translate(1878 1712.813)" fill="#fff" font-size="14" font-family="MicrosoftYaHei, Microsoft YaHei" letter-spacing="0.04em"><tspan x="-14.28" y="0">返回</tspan><tspan x="-14.28" y="18">顶部</tspan></text>
    <g id="组_8107" data-name="组 8107" transform="translate(47.137 913.532)">
      <path id="路径_48834" data-name="路径 48834" d="M1826.378,9584.211l4.485-4.485,4.485,4.485" transform="translate(0 -8803)" fill="none" stroke="#fff" stroke-linecap="round" stroke-width="1"/>
      <path id="路径_48835" data-name="路径 48835" d="M1826.378,9579.726h8.943" transform="translate(0 -8803.789)" fill="none" stroke="#fff" stroke-linecap="round" stroke-width="1"/>
    </g>
  </g>
</svg>
