<svg xmlns="http://www.w3.org/2000/svg" width="50.866" height="50.866" viewBox="0 0 50.866 50.866">
  <g id="组_8038" data-name="组 8038" transform="translate(-520.174 -6855.357)">
    <g id="xuexiqiangguo" transform="translate(520.174 6855.357)">
      <path id="路径_48727" data-name="路径 48727" d="M7.63,0H43.236a7.532,7.532,0,0,1,7.63,7.63V43.236a7.532,7.532,0,0,1-7.63,7.63H7.63A7.532,7.532,0,0,1,0,43.236V7.63A7.532,7.532,0,0,1,7.63,0Z" fill="#fff"/>
    </g>
    <g id="toutiao" transform="translate(520.174 6857.228)">
      <path id="路径_48728" data-name="路径 48728" d="M50.866,212.329,0,214.989V184.873l50.866-2.655Z" transform="translate(0 -173.17)" fill="#d02f19"/>
      <path id="路径_48729" data-name="路径 48729" transform="translate(3.973 3.626)" fill="#fff"/>
      <path id="路径_48730" data-name="路径 48730" transform="translate(3.973 3.626)" fill="#ddd"/>
      <path id="路径_48731" data-name="路径 48731" d="M109.944,297.249v-2.606l-5.9-.535v2.609Zm-5.9,1.273v2.609l5.9.535v-2.609l-5.9-.538Zm15.112,6.807-16.65.869v-2.336l16.65-.871Zm17.823-.932-16.65.867v-2.336l16.65-.871v2.339Zm-.926-9.625-12.113.633v-2.336l12.113-.635v2.339Z" transform="translate(-94.22 -276.498)" fill="#fff"/>
      <path id="路径_48732" data-name="路径 48732" d="M128.849,292.973l-2.654.136c-.066,5.274-.141,8.246-1.109,10.371s-3.022,3.94-7.123,7.5c-.172.145-.345.3-.526.454l4.174-.215C128.436,305.211,128.7,303.906,128.849,292.973Zm2.033,13.656-3.2.166,2.57,3.974,3.2-.17Zm17.85-.932-3.2.168,2.572,3.97,3.2-.168Zm-8.321.436-3.2.17-2.572,4.235,3.2-.166,2.575-4.242Zm3.879,3.9-2.713.141v-8.938l2.713-.145Zm3.627-17.489v1.642c-1.545,1.322-4.664,3.57-13.288,5.469v2.5c10.476-2.253,14.046-5.419,15.727-7.023v-2.7Z" transform="translate(-108.521 -276.498)" fill="#fff"/>
      <path id="路径_48733" data-name="路径 48733" d="M539.537,337.877l-.329-.227-2.255,1.479,1.112.808c1.846,1.266,5.206,3.58,15.067,4.673v-2.5C544.183,341.074,541.191,339.016,539.537,337.877Z" transform="translate(-510.38 -319.813)" fill="#fff"/>
      <path id="路径_48734" data-name="路径 48734" d="M536.9,284.4l2.28,1.375,2.745-4.219-2.507-1.037L536.9,284.4Z" transform="translate(-510.328 -265.089)" fill="#fff"/>
    </g>
  </g>
</svg>
