<svg xmlns="http://www.w3.org/2000/svg" xmlns:xlink="http://www.w3.org/1999/xlink" width="67.658" height="67.658" viewBox="0 0 67.658 67.658">
  <defs>
    <filter id="椭圆_710" x="0" y="0" width="67.658" height="67.658" filterUnits="userSpaceOnUse">
      <feOffset dy="3" input="SourceAlpha"/>
      <feGaussianBlur stdDeviation="3" result="blur"/>
      <feFlood flood-color="#3077cb" flood-opacity="0.122"/>
      <feComposite operator="in" in2="blur"/>
      <feComposite in="SourceGraphic"/>
    </filter>
  </defs>
  <g id="组_8033" data-name="组 8033" transform="translate(1380.632 -7105.857)">
    <g id="组_8032" data-name="组 8032" transform="translate(-1371.632 7111.857)">
      <g transform="matrix(1, 0, 0, 1, -9, -6)" filter="url(#椭圆_710)">
        <ellipse id="椭圆_710-2" data-name="椭圆 710" cx="24.829" cy="24.829" rx="24.829" ry="24.829" transform="translate(9 6)" fill="#fff"/>
      </g>
      <path id="抖音" d="M134.838,63.587v-.92a6.4,6.4,0,0,1-1.207-.13,5.9,5.9,0,0,1-1.9-.774.618.618,0,0,0-.124-.116,5.1,5.1,0,0,1-1.843-2.027,6.337,6.337,0,0,1-.6-1.674h-.023a5.561,5.561,0,0,1-.092-1.056h-4.168c0,2.008.008,4.016-.009,6.024V73.426a3.48,3.48,0,0,1-5.108,3.029,4.265,4.265,0,0,1-1.056-.864,3.3,3.3,0,0,1-.8-1.791,3.542,3.542,0,0,1,.358-1.987,3.017,3.017,0,0,1,.754-.937,4.224,4.224,0,0,1,1.768-.846,2.936,2.936,0,0,1,1.643.05V68.009c0-.4.012-.81-.009-1.207-.014-.324,0-.649,0-.973a7.631,7.631,0,0,0-5.468,13.785l.056.048a7.509,7.509,0,0,0,2.761,1.195,8.81,8.81,0,0,0,2.138.172,7.015,7.015,0,0,0,3.951-1.34,7.881,7.881,0,0,0,2.148-2.418,8.236,8.236,0,0,0,1.115-3.554c.026-.341.011-.682.009-1.023q-.029-3.84-.026-7.681a9.849,9.849,0,0,0,5.732,1.8V63.587Z" transform="translate(-99.851 -43.911)" fill="#242424"/>
    </g>
  </g>
</svg>
