<svg xmlns="http://www.w3.org/2000/svg" xmlns:xlink="http://www.w3.org/1999/xlink" width="67.658" height="67.658" viewBox="0 0 67.658 67.658">
  <defs>
    <filter id="椭圆_711" x="0" y="0" width="67.658" height="67.658" filterUnits="userSpaceOnUse">
      <feOffset dy="3" input="SourceAlpha"/>
      <feGaussianBlur stdDeviation="3" result="blur"/>
      <feFlood flood-color="#3077cb" flood-opacity="0.122"/>
      <feComposite operator="in" in2="blur"/>
      <feComposite in="SourceGraphic"/>
    </filter>
  </defs>
  <g id="组_8035" data-name="组 8035" transform="translate(1575.013 -7105.858)">
    <g id="组_8034" data-name="组 8034" transform="translate(-1566.013 7111.857)">
      <g transform="matrix(1, 0, 0, 1, -9, -6)" filter="url(#椭圆_711)">
        <ellipse id="椭圆_711-2" data-name="椭圆 711" cx="24.829" cy="24.829" rx="24.829" ry="24.829" transform="translate(9 6)" fill="#fff"/>
      </g>
      <path id="channels" d="M159.068,194.72a29.654,29.654,0,0,1-1.736,2.905,8.234,8.234,0,0,1-2.511,2.673.475.475,0,0,1-.622-.16,24.177,24.177,0,0,1-2.54-6.786c-1.024-4.068-1.366-7.811-.833-9.1a.361.361,0,0,1,.516-.174c.724.425,2.521,1.974,5.918,7.616.765,1.269,1.424,2.376,1.808,3.027m10.373-1.368a24.671,24.671,0,0,1-2.5,6.733.56.56,0,0,1-.767.168c-1.018-.634-2.689-2.695-4.143-5.528.386-.647,1.045-1.76,1.812-3.033,3.409-5.659,5.208-7.2,5.924-7.62a.348.348,0,0,1,.508.174l0,.006c.535,1.288.193,5.032-.831,9.1m3.222-10.089a2.741,2.741,0,0,0-2.329-1.928c-2.206-.164-4.8,2.536-8.711,9.02l-1.074,1.792c-.315-.525-.678-1.136-1.074-1.792-3.908-6.486-6.517-9.185-8.711-9.02a2.741,2.741,0,0,0-2.329,1.928c-.9,2.169-.222,6.415.259,8.752a34.608,34.608,0,0,0,2.986,8.957c.722,1.271,1.445,1.92,2.273,2.04a2.786,2.786,0,0,0,.4.029c2.445,0,4.775-3.193,6.195-5.627,1.42,2.434,3.747,5.627,6.195,5.627a2.813,2.813,0,0,0,.4-.029c.827-.12,1.549-.769,2.272-2.04a34.66,34.66,0,0,0,2.986-8.957c.483-2.337,1.157-6.583.259-8.752" transform="translate(-136.708 -166.657)" fill="#fa9d3b"/>
    </g>
  </g>
</svg>
