<svg xmlns="http://www.w3.org/2000/svg" xmlns:xlink="http://www.w3.org/1999/xlink" width="67.658" height="67.658" viewBox="0 0 67.658 67.658">
  <defs>
    <filter id="椭圆_706" x="0" y="0" width="67.658" height="67.658" filterUnits="userSpaceOnUse">
      <feOffset dy="3" input="SourceAlpha"/>
      <feGaussianBlur stdDeviation="3" result="blur"/>
      <feFlood flood-color="#3077cb" flood-opacity="0.122"/>
      <feComposite operator="in" in2="blur"/>
      <feComposite in="SourceGraphic"/>
    </filter>
  </defs>
  <g id="组_8026" data-name="组 8026" transform="translate(1445.426 -7105.858)">
    <g id="组_8025" data-name="组 8025" transform="translate(-1436.426 7111.857)">
      <g transform="matrix(1, 0, 0, 1, -9, -6)" filter="url(#椭圆_706)">
        <ellipse id="椭圆_706-2" data-name="椭圆 706" cx="24.829" cy="24.829" rx="24.829" ry="24.829" transform="translate(9 6)" fill="#fff"/>
      </g>
      <g id="微博" transform="translate(10.836 12.703)">
        <path id="路径_48718" data-name="路径 48718" d="M52.614,245.108a4.315,4.315,0,0,0-3.11-2.7c-.456-.042-.869-.292-.567-.808a2.575,2.575,0,0,0-.213-3.074c-1.074-1.061-3.422-.66-5.083.025s-1.568.207-1.517-.262c.056-.495.95-3.26-1.785-3.594-3.583-.435-8.181,3.967-9.8,6.5-2.454,3.831-2.066,6.423-2.066,6.423h.017c.294,3.578,5.6,6.428,12.109,6.428,5.595,0,10.307-2.11,11.7-4.977a.191.191,0,0,1,.017-.034,4.291,4.291,0,0,0,.324-.947A5.375,5.375,0,0,0,52.614,245.108ZM39.79,252.487c-4.632,0-8.39-2.47-8.39-5.514s3.754-5.514,8.39-5.514,8.39,2.47,8.39,5.514S44.421,252.487,39.79,252.487Z" transform="translate(-28.446 -231.128)" fill="#e71f19"/>
        <path id="路径_48719" data-name="路径 48719" d="M673.607,260.544a.642.642,0,0,0,.264.055.679.679,0,0,0,.626-.414,3.288,3.288,0,0,0,.264-1.3,3.357,3.357,0,0,0-4.657-3.066.678.678,0,0,0-.362.888.687.687,0,0,0,.895.359,2.031,2.031,0,0,1,.776-.157,1.985,1.985,0,0,1,1.99,1.975,1.913,1.913,0,0,1-.158.77.67.67,0,0,0,.362.888Z" transform="translate(-650.857 -251.405)" fill="#f5aa15"/>
        <path id="路径_48720" data-name="路径 48720" d="M628.672,114.157a8,8,0,0,0-2.241.321,1.015,1.015,0,1,0,.58,1.945,5.929,5.929,0,0,1,1.661-.237,5.806,5.806,0,0,1,5.82,5.777,5.865,5.865,0,0,1-.247,1.679,1.012,1.012,0,0,0,.682,1.264,1.035,1.035,0,0,0,1.278-.677,7.805,7.805,0,0,0-7.533-10.073Z" transform="translate(-608.159 -114.157)" fill="#f5aa15"/>
        <path id="路径_48721" data-name="路径 48721" d="M240.428,534.47a3.925,3.925,0,1,0,4.474,3.886A4.21,4.21,0,0,0,240.428,534.47Zm-1.461,6.411a1.556,1.556,0,1,1,1.568-1.556A1.563,1.563,0,0,1,238.966,540.881Zm2.932-2.8a.637.637,0,0,1-.844.3.631.631,0,0,1-.158-.875.585.585,0,1,1,1,.575Z" transform="translate(-229.86 -522.126)" fill="#040000"/>
      </g>
    </g>
  </g>
</svg>
