<svg xmlns="http://www.w3.org/2000/svg" xmlns:xlink="http://www.w3.org/1999/xlink" width="67.658" height="67.658" viewBox="0 0 67.658 67.658">
  <defs>
    <filter id="椭圆_709" x="0" y="0" width="67.658" height="67.658" filterUnits="userSpaceOnUse">
      <feOffset dy="3" input="SourceAlpha"/>
      <feGaussianBlur stdDeviation="3" result="blur"/>
      <feFlood flood-color="#3077cb" flood-opacity="0.122"/>
      <feComposite operator="in" in2="blur"/>
      <feComposite in="SourceGraphic"/>
    </filter>
  </defs>
  <g id="组_8031" data-name="组 8031" transform="translate(1315.838 -7105.857)">
    <g id="组_8030" data-name="组 8030" transform="translate(-1306.838 7111.857)">
      <g transform="matrix(1, 0, 0, 1, -9, -6)" filter="url(#椭圆_709)">
        <ellipse id="椭圆_709-2" data-name="椭圆 709" cx="24.829" cy="24.829" rx="24.829" ry="24.829" transform="translate(9 6)" fill="#fff"/>
      </g>
      <path id="联合_71" data-name="联合 71" d="M5.57,23.815S3.487,23.3,1.783,22.724,0,20.916,0,20.916V14.707A1.641,1.641,0,0,1,.9,13.5a.331.331,0,0,1,.219-.025l5.284.776a.325.325,0,0,1,.191.1l3.318,3.426v1.647a35.6,35.6,0,0,0-2.7,3.671,1.417,1.417,0,0,1-1.337.749A1.717,1.717,0,0,1,5.57,23.815ZM1.434,15.7s-.314,4.517.319,5.093c.7.63,2.912.937,3.455.95s.5-.377.5-.377V16.49c0-.365-.436-.622-.436-.622l-3.517-.63a.242.242,0,0,0-.045,0C1.445,15.233,1.434,15.7,1.434,15.7Zm9.378,6.561a12.161,12.161,0,0,1-1.261-.431.157.157,0,0,1-.07-.236l1.378-1.866a.4.4,0,0,0,.073-.236V17.436a.405.405,0,0,0-.111-.282L7.88,14.06a.373.373,0,0,1-.1-.311.761.761,0,0,1,.8-.668c.108,0,7.673-.622,8.175-.543s2.518.021,2.616.8a6.676,6.676,0,0,1,0,1.53s-4.469.784-4.57.888a1.374,1.374,0,0,0-.439,1c.02.547.02,2.659.036,2.721s.122.465.889.382a6.436,6.436,0,0,0,1.434-.361.141.141,0,0,0,.087-.145l-.042-.543a.142.142,0,0,0-.165-.129l-1.153.232V16.743l3.732-.672a.13.13,0,0,1,.157.124l.121,3.683s.212.917-1.356,1.24-5.333,1.265-5.7,1.286c-.094.005-.206.009-.33.009A5.088,5.088,0,0,1,10.812,22.264ZM1.9,6.059A5.825,5.825,0,0,1,7.461,0a5.679,5.679,0,0,1,5.391,4.575,4.065,4.065,0,0,1,3.239-1.63,4.26,4.26,0,0,1,4.151,4.363,4.289,4.289,0,0,1-3.774,4.347l.005,0-.118.008a.993.993,0,0,0-.11,0l-8.3.427a4.61,4.61,0,0,1-.48.025A5.826,5.826,0,0,1,1.9,6.059Zm3.807.17A3.05,3.05,0,0,0,8.522,9.469a3.051,3.051,0,0,0,2.812-3.239A3.047,3.047,0,0,0,8.522,2.994,3.046,3.046,0,0,0,5.71,6.229Zm9.183.954a2.008,2.008,0,0,0,1.854,2.136A2.011,2.011,0,0,0,18.6,7.183a2.011,2.011,0,0,0-1.858-2.136A2.008,2.008,0,0,0,14.893,7.183Z" transform="translate(14.709 12.919)" fill="#ff6734"/>
    </g>
  </g>
</svg>
