<svg xmlns="http://www.w3.org/2000/svg" xmlns:xlink="http://www.w3.org/1999/xlink" width="67.658" height="67.658" viewBox="0 0 67.658 67.658">
  <defs>
    <filter id="椭圆_707" x="0" y="0" width="67.658" height="67.658" filterUnits="userSpaceOnUse">
      <feOffset dy="3" input="SourceAlpha"/>
      <feGaussianBlur stdDeviation="3" result="blur"/>
      <feFlood flood-color="#3077cb" flood-opacity="0.122"/>
      <feComposite operator="in" in2="blur"/>
      <feComposite in="SourceGraphic"/>
    </filter>
    <filter id="椭圆_708" x="0" y="0" width="67.658" height="67.658" filterUnits="userSpaceOnUse">
      <feOffset dy="3" input="SourceAlpha"/>
      <feGaussianBlur stdDeviation="3" result="blur-2"/>
      <feFlood flood-color="#3077cb" flood-opacity="0.122"/>
      <feComposite operator="in" in2="blur-2"/>
      <feComposite in="SourceGraphic"/>
    </filter>
  </defs>
  <g id="组_8029" data-name="组 8029" transform="translate(1251.044 -7105.857)">
    <g id="组_8027" data-name="组 8027" transform="translate(-1242.044 7111.857)">
      <g transform="matrix(1, 0, 0, 1, -9, -6)" filter="url(#椭圆_707)">
        <ellipse id="椭圆_707-2" data-name="椭圆 707" cx="24.829" cy="24.829" rx="24.829" ry="24.829" transform="translate(9 6)" fill="#fff"/>
      </g>
      <path id="b站" d="M137,137.041l-4.491.909.384,1.778,4.448-.906Zm2.423,4.719c-1.1,2.487-2.083.61-2.083.61l-.735.5s1.448,2.092,2.829.5c1.628,1.589,2.874-.515,2.874-.515l-.668-.455C141.641,142.394,140.476,144.173,139.424,141.76Zm2.217-2.938,4.459.908.374-1.781-4.481-.908Zm8.854-3.5a3.935,3.935,0,0,0-2.811-3.952s-2.139-.013-4.914-.037l2.021-2.058s.318-.423-.225-.9-.58-.262-.767-.137c-.168.123-2.588,2.631-3.013,3.08-1.1,0-2.245-.013-3.355-.013h.391s-2.895-3.018-3.084-3.155-.211-.337-.767.137-.225.9-.225.9l2.07,2.12c-2.245,0-4.182.013-5.078.049a3.912,3.912,0,0,0-2.681,3.967s.037,6.605,0,9.949c.318,3.342,2.751,3.877,2.751,3.877s.969.024,1.69.024c.071.213.131,1.259,1.241,1.259s1.241-1.259,1.241-1.259,8.089-.037,8.763-.037a1.278,1.278,0,0,0,1.31,1.31c1.1-.024,1.181-1.385,1.181-1.385a13.744,13.744,0,0,1,1.5,0c2.62-.511,2.773-3.752,2.773-3.752S150.46,138.642,150.5,135.325ZM148.239,145.9a.912.912,0,0,1-.874.949H131.423a.911.911,0,0,1-.874-.947v-11.16a.911.911,0,0,1,.874-.947h15.942a.911.911,0,0,1,.874.947V145.9Z" transform="translate(-114.512 -114.452)" fill="#fa7c9b"/>
    </g>
    <g id="组_8028" data-name="组 8028" transform="translate(-1242.044 7111.857)">
      <g transform="matrix(1, 0, 0, 1, -9, -6)" filter="url(#椭圆_708)">
        <ellipse id="椭圆_708-2" data-name="椭圆 708" cx="24.829" cy="24.829" rx="24.829" ry="24.829" transform="translate(9 6)" fill="#fff"/>
      </g>
      <path id="b站-2" data-name="b站" d="M137,137.041l-4.491.909.384,1.778,4.448-.906Zm2.423,4.719c-1.1,2.487-2.083.61-2.083.61l-.735.5s1.448,2.092,2.829.5c1.628,1.589,2.874-.515,2.874-.515l-.668-.455C141.641,142.394,140.476,144.173,139.424,141.76Zm2.217-2.938,4.459.908.374-1.781-4.481-.908Zm8.854-3.5a3.935,3.935,0,0,0-2.811-3.952s-2.139-.013-4.914-.037l2.021-2.058s.318-.423-.225-.9-.58-.262-.767-.137c-.168.123-2.588,2.631-3.013,3.08-1.1,0-2.245-.013-3.355-.013h.391s-2.895-3.018-3.084-3.155-.211-.337-.767.137-.225.9-.225.9l2.07,2.12c-2.245,0-4.182.013-5.078.049a3.912,3.912,0,0,0-2.681,3.967s.037,6.605,0,9.949c.318,3.342,2.751,3.877,2.751,3.877s.969.024,1.69.024c.071.213.131,1.259,1.241,1.259s1.241-1.259,1.241-1.259,8.089-.037,8.763-.037a1.278,1.278,0,0,0,1.31,1.31c1.1-.024,1.181-1.385,1.181-1.385a13.744,13.744,0,0,1,1.5,0c2.62-.511,2.773-3.752,2.773-3.752S150.46,138.642,150.5,135.325ZM148.239,145.9a.912.912,0,0,1-.874.949H131.423a.911.911,0,0,1-.874-.947v-11.16a.911.911,0,0,1,.874-.947h15.942a.911.911,0,0,1,.874.947V145.9Z" transform="translate(-114.512 -114.452)" fill="#fa7c9b"/>
    </g>
  </g>
</svg>
