<svg id="xuexiqiangguo" xmlns="http://www.w3.org/2000/svg" width="50.866" height="50.866" viewBox="0 0 50.866 50.866">
  <path id="路径_48725" data-name="路径 48725" d="M7.63,0H43.236a7.532,7.532,0,0,1,7.63,7.63V43.236a7.532,7.532,0,0,1-7.63,7.63H7.63A7.532,7.532,0,0,1,0,43.236V7.63A7.532,7.532,0,0,1,7.63,0Z" fill="#bb2614"/>
  <path id="路径_48726" data-name="路径 48726" d="M52.4,161.1a1.443,1.443,0,0,1,.477,1.113,4.177,4.177,0,0,1-1.113,2.384,4.214,4.214,0,0,0-.795.954h.636v1.113c-.318,1.272-.477,2.7-.795,3.974,0,.318-.159.477-.159.795-.159.477-.159.477.477.636V169.52c0-.159.159-.159.318-.159a4.215,4.215,0,0,1,.795.954,4.642,4.642,0,0,1,.318,1.431v.636c.159-.159.318-.159.477-.318a9.489,9.489,0,0,0,2.225-4.133.492.492,0,0,0-.159-.318,3.474,3.474,0,0,0-.795-.477c-.159-.159-.318-.477,0-.636a2.552,2.552,0,0,1,2.861-.795c.636.318.795.636.477,1.431-.636,1.431-1.272,2.7-1.907,4.133a8.312,8.312,0,0,1-1.907,2.7l-.159.159c.159,0,.159,0,.318-.159.636-.159,1.272-.477,1.907-.636a1.881,1.881,0,0,1,1.59.159.581.581,0,0,1,.318.795c0,.159-.159.318-.159.477a27.206,27.206,0,0,1-2.861,3.179,25.055,25.055,0,0,1-3.815,2.384,4.759,4.759,0,0,0-1.272.636c.159,0,.159.159.318.159a.841.841,0,0,1,.636,1.113.584.584,0,0,1-.159.477l-.159.477c-.159.318-.159.795-.318,1.113a2.562,2.562,0,0,0,1.113-.636,1.587,1.587,0,0,1,1.749-.636c.318.159.636.159.954.318a.961.961,0,0,1,.477.954,1.056,1.056,0,0,1-.636.795,2.947,2.947,0,0,1-1.113.318,8.96,8.96,0,0,0-1.907.636,3.474,3.474,0,0,0-.795.477c-.318.159-.318.318-.318.636v5.881a1.433,1.433,0,0,0,.159.795,1.5,1.5,0,0,1-.954,1.749.956.956,0,0,1-.636-.159c-.954-.636-2.066-1.272-3.02-1.907a10.2,10.2,0,0,1-2.066-1.59.156.156,0,0,0-.159-.159c1.59.318,3.179,1.113,4.769,1.59V187.8a9.724,9.724,0,0,1-1.907.795c-.636.318-1.272.636-2.066.954a1.2,1.2,0,0,1-1.272-.159,7.342,7.342,0,0,1-1.113-1.113c-.318-.477-.159-.795.318-.795,1.907-.477,3.815-.954,5.722-1.59a1.394,1.394,0,0,0,.954-1.113c.159-.477.318-.954.477-1.59-.318,0-.636.159-.954.159H46.681c-.318,0-.477-.318-.636-.636,0-.477-.159-.954-.159-1.431.477,0,.795.159,1.113.159h.477a28.692,28.692,0,0,0,5.881-3.815,14.331,14.331,0,0,0,1.431-1.59,1.222,1.222,0,0,0,.318-.477,1.728,1.728,0,0,1-.795.159,36.741,36.741,0,0,0-8.107,3.5,51.13,51.13,0,0,0-5.722,3.815l-1.431.954a2.481,2.481,0,0,0-1.113,2.066,2.277,2.277,0,0,1-.795,1.749c-.636.477-1.113.477-1.59-.318a2.86,2.86,0,0,1-.318-2.543,8.961,8.961,0,0,1,.636-1.907c.159-.636.318-1.272.477-2.066A6.064,6.064,0,0,1,38.1,183.19a65.949,65.949,0,0,1,13.67-8.107l-.159-.159c-.636-.477-1.431-.954-2.066-1.431-.477-.318-.636-.318-1.113.159a16.651,16.651,0,0,0-1.272,1.749.826.826,0,0,1-.636.318.956.956,0,0,1-.636-.159c-.318-.159-.318-.318-.159-.636a14.331,14.331,0,0,0,1.431-1.59l.477-.477a.755.755,0,0,0-.477-.795.956.956,0,0,0-.636-.159c-.318-.159-.477-.318-.318-.636.636,0,1.431-.159,2.066-.159.159,0,.318-.159.477-.318.477-1.272.954-2.7,1.431-3.974v-.159a.492.492,0,0,1-.318.159l-1.907,1.431a1.2,1.2,0,0,1-1.272.159,2.791,2.791,0,0,1-.636-.795c-.318-.318-.159-.636.159-.636,1.113-.159,1.749-1.113,2.543-1.749a5.2,5.2,0,0,0,1.749-2.384,5.646,5.646,0,0,0,.636-1.431A.712.712,0,0,1,52.4,161.1Zm-10.65,10.332c.159.318.477.477.636.795.477.954.795,1.907,1.272,2.861,0,.159.159.318.159.477a1.609,1.609,0,0,1-.636,1.113h-.318a1.57,1.57,0,0,1-1.59-1.272,7.146,7.146,0,0,1-.159-3.656.555.555,0,0,1,.159-.318C41.435,171.269,41.753,171.428,41.753,171.428Zm1.907-2.7a5.053,5.053,0,0,1,1.749,1.907,2.259,2.259,0,0,1,.318.954,2.108,2.108,0,0,1-.954,1.59.874.874,0,0,1-1.113-.477c0-.159-.159-.318-.159-.477a4.232,4.232,0,0,0-.477-1.907c-.159-.318-.159-.636-.318-.954a.584.584,0,0,1,.159-.477C43.342,168.725,43.5,168.566,43.66,168.725Zm38.785-3.338a2.206,2.206,0,0,1,0,1.431c-.159.318-.477.795-.636,1.113-1.431,2.225-2.861,4.292-4.451,6.517a16.735,16.735,0,0,0-1.907,4.928,35.457,35.457,0,0,0-.636,3.656v.318a2.187,2.187,0,0,1,.159,1.749c-.477,1.749-.954,3.5-1.272,5.087a9.112,9.112,0,0,1-.636,2.225c-.159.318-.159.636-.318.954a.9.9,0,0,1-1.59.159,7.749,7.749,0,0,1-.477-1.113c-.159-.477-.318-.795-.477-1.272v-.795l1.431.954c.477-2.384,1.113-4.61,1.59-6.994a20.2,20.2,0,0,0-4.292,2.861c.159.159.318.159.318.318.318.318.636.477.795.954a.821.821,0,0,1-.477,1.113,4.431,4.431,0,0,1-2.861.159c.318-.477.795-.636.795-1.272-.159.159-.318.318-.477.318l-.954.477-.159.159c-.159.636-.159,1.431-.318,2.066a6.885,6.885,0,0,1,.159.795c.159.318.159.477.318.795,0,.159.159.318.159.477v.795a6.912,6.912,0,0,1-.636,1.113c0,.318-.318.318-.477.318a.156.156,0,0,1-.159-.159c-1.59-1.113-1.272-.795-1.749-2.384a12.036,12.036,0,0,0-1.431-2.861c-.159-.159-.159-.477-.318-.795.477.318.636-.159.795-.318,1.749-2.225,3.338-4.292,5.087-6.517a2.824,2.824,0,0,0,.636-1.59c0-.318.159-.477.159-.795.159-.318.318-.477.636-.318.159,0,.318.159.477.318.318.318.477.636.795.954a1.5,1.5,0,0,1-.159,2.066c-.477.477-1.113.954-1.59,1.431-1.59,1.431-3.338,3.02-4.928,4.451-.318.159-.477.477-.795.636a3.164,3.164,0,0,0,1.907,1.272c.159-.318.318-.795.477-1.113,0-.159.159-.318.159-.477v-.159c-.159-.318-.159-.477.159-.636.954-.636,1.907-1.431,2.861-2.066a34.044,34.044,0,0,1,3.02-2.066,1.915,1.915,0,0,0,.795-.795,2.207,2.207,0,0,1,1.59-.795v-.318a15.232,15.232,0,0,1,1.431-5.881,38.683,38.683,0,0,1,4.928-8.584,2.562,2.562,0,0,0,.636-1.113c.159-.318.159-.477.318-.795,0-.318,0-.477-.318-.477h-.795a7.65,7.65,0,0,0-2.543,1.272,9.306,9.306,0,0,1-2.7,1.59,8.054,8.054,0,0,1-2.066.318,1.513,1.513,0,0,1-1.113-.318.584.584,0,0,1-.159-.477.342.342,0,0,1,.318-.318,10.328,10.328,0,0,0,3.656-1.431c1.431-.795,2.861-1.431,4.292-2.066A2.108,2.108,0,0,1,82.446,165.387ZM68.14,167.295a.751.751,0,0,1,.795.795.956.956,0,0,1-.159.636c-.318.954-.636,1.749-.954,2.7-.318,1.272-.795,2.384-1.113,3.656-.318,1.749-.477,3.338-.636,5.087a7.739,7.739,0,0,1-.159,1.907.826.826,0,0,1-.318.636,8.873,8.873,0,0,1-1.272.795c-.477-.954-.954-1.749-1.431-2.7-.159.159-.159.318-.318.477-.318.477-.477.954-.795,1.431a7.535,7.535,0,0,1-1.59,1.59c.159.318,0,.318-.159.477-.636.159-.954-.159-.954-.795v-.636a2.362,2.362,0,0,1,.318-1.431,43.854,43.854,0,0,0,1.272-4.292,6.885,6.885,0,0,1,.159-.795,1.236,1.236,0,0,0-.318-1.272c-.477-.477-.318-.954.318-1.272a2.205,2.205,0,0,1,2.7.795,1.425,1.425,0,0,1-.159,1.749l-.318.318a6.244,6.244,0,0,0-2.225,3.338c-.159.477-.318,1.113-.477,1.59.159-.159.477-.318.636-.477.318-.477.636-.795.954-1.272a4.285,4.285,0,0,1,1.113-1.272c.318.318.636.477.954.795.795-3.338,1.59-6.676,2.225-10.014l-2.861.954a1.065,1.065,0,0,1-1.272-.477c-.159-.318-.318-.477-.477-.795.159-.318.477-.159.636-.318a3.5,3.5,0,0,0,1.272-.159,4.177,4.177,0,0,0,2.384-1.113A4.786,4.786,0,0,1,68.14,167.295Zm3.5,3.815a2.9,2.9,0,0,1,2.066,1.272.71.71,0,0,1,0,.795,3.468,3.468,0,0,1-.795.636,7.749,7.749,0,0,0-1.749.636c-.159,0-.159,0-.318.159a8.381,8.381,0,0,1,1.749,2.384c.159.159,0,.477,0,.636a1.407,1.407,0,0,1-1.749.318,1.073,1.073,0,0,1-.636-.954,3.577,3.577,0,0,1,.159-2.225l.159-.159c.318-.318.636-.795.954-1.113a.3.3,0,0,0,0-.477,2.194,2.194,0,0,1-.477-.636.71.71,0,0,1,0-.795C71.16,171.11,71.319,170.951,71.637,171.11Z" transform="translate(-33.328 -152.83)" fill="#fefefe"/>
</svg>
