<svg xmlns="http://www.w3.org/2000/svg" xmlns:xlink="http://www.w3.org/1999/xlink" width="67.658" height="67.658" viewBox="0 0 67.658 67.658">
  <defs>
    <filter id="椭圆_705" x="0" y="0" width="67.658" height="67.658" filterUnits="userSpaceOnUse">
      <feOffset dy="3" input="SourceAlpha"/>
      <feGaussianBlur stdDeviation="3" result="blur"/>
      <feFlood flood-color="#3077cb" flood-opacity="0.122"/>
      <feComposite operator="in" in2="blur"/>
      <feComposite in="SourceGraphic"/>
    </filter>
  </defs>
  <g id="组_8024" data-name="组 8024" transform="translate(1639.807 -7105.857)">
    <g transform="matrix(1, 0, 0, 1, -1639.81, 7105.86)" filter="url(#椭圆_705)">
      <ellipse id="椭圆_705-2" data-name="椭圆 705" cx="24.829" cy="24.829" rx="24.829" ry="24.829" transform="translate(9 6)" fill="#fff"/>
    </g>
    <g id="微信" transform="translate(-1619.829 7125.965)">
      <path id="路径_48716" data-name="路径 48716" d="M89.775,158.822a5.686,5.686,0,0,1,.923.05C89.828,154.925,85.62,152,80.8,152c-5.385,0-9.8,3.693-9.8,8.309,0,2.667,1.437,4.924,3.9,6.618l-.976,2.925,3.436-1.691a15.853,15.853,0,0,0,3.436.512,6.711,6.711,0,0,0,.976-.05,6.9,6.9,0,0,1-.308-2.052A8.013,8.013,0,0,1,89.775,158.822Zm-5.284-2.667a1.156,1.156,0,0,1,1.23,1.23,1.183,1.183,0,0,1-1.23,1.23,1.252,1.252,0,1,1,0-2.46ZM77.7,158.449a1.244,1.244,0,1,1,0-2.435,1.218,1.218,0,1,1,0,2.435Z" transform="translate(-71 -152)" fill="#24db5a"/>
      <path id="路径_48717" data-name="路径 48717" d="M439.172,392.93c0-3.951-3.9-7.13-8.31-7.13-4.669,0-8.363,3.232-8.363,7.13,0,3.951,3.694,7.13,8.363,7.13a11.781,11.781,0,0,0,2.925-.511l2.667,1.487-.719-2.463C437.685,397.084,439.172,395.136,439.172,392.93Zm-11.03-1.23a1.049,1.049,0,0,1-.976-.976,1.093,1.093,0,0,1,.976-.976,1.153,1.153,0,0,1,1.23.976C429.372,391.238,428.911,391.7,428.142,391.7Zm5.586-.239a1.048,1.048,0,0,1-.982-.963,1.09,1.09,0,0,1,.982-.963,1.158,1.158,0,0,1,1.24.963A1.119,1.119,0,0,1,433.728,391.461Z" transform="translate(-411.47 -378.463)" fill="#24db5a"/>
    </g>
  </g>
</svg>
